<svg id="Capa_1" enable-background="new 0 0 510 510" height="512" viewBox="0 0 510 510" width="512" xmlns="http://www.w3.org/2000/svg" xmlns:xlink="http://www.w3.org/1999/xlink"><linearGradient id="lg1"><stop offset="0" stop-color="#ffdcbd"/><stop offset=".0028" stop-color="#ffdcbd"/><stop offset="1" stop-color="#ffa9b1"/></linearGradient><linearGradient id="SVGID_1_" gradientUnits="userSpaceOnUse" x1="-8" x2="101.041" xlink:href="#lg1" y1="241.313" y2="241.313"/><linearGradient id="lg2"><stop offset="0" stop-color="#ffc2b5"/><stop offset="1" stop-color="#ff89a8"/></linearGradient><linearGradient id="SVGID_2_" gradientUnits="userSpaceOnUse" x1="7" x2="124.004" xlink:href="#lg2" y1="241.31" y2="241.31"/><linearGradient id="SVGID_3_" gradientUnits="userSpaceOnUse" x1="349" x2="489.057" xlink:href="#lg1" y1="241.313" y2="241.313"/><linearGradient id="SVGID_4_" gradientUnits="userSpaceOnUse" x1="334" x2="532.04" xlink:href="#lg2" y1="122.541" y2="122.541"/><linearGradient id="SVGID_5_" gradientUnits="userSpaceOnUse" x1="334" x2="532.04" xlink:href="#lg2" y1="294.351" y2="294.351"/><linearGradient id="SVGID_6_" gradientUnits="userSpaceOnUse" x1="128.013" x2="398.628" xlink:href="#lg1" y1="255" y2="255"/><linearGradient id="SVGID_7_" gradientUnits="userSpaceOnUse" x1="83.62" x2="242.388" xlink:href="#lg1" y1="62.145" y2="62.145"/><linearGradient id="SVGID_8_" gradientUnits="userSpaceOnUse" x1="128.011" x2="398.63" xlink:href="#lg2" y1="260.642" y2="260.642"/><linearGradient id="lg3"><stop offset="0" stop-color="#fe646f"/><stop offset=".5213" stop-color="#e41f2d"/><stop offset="1" stop-color="#c41926"/></linearGradient><linearGradient id="SVGID_9_" gradientUnits="userSpaceOnUse" x1="192" x2="360.074" xlink:href="#lg3" y1="42.25" y2="42.25"/><linearGradient id="SVGID_10_" gradientUnits="userSpaceOnUse" x1="148.333" x2="310.667" xlink:href="#lg3" y1="42.25" y2="42.25"/><linearGradient id="lg4"><stop offset="0" stop-color="#fff9df"/><stop offset=".5213" stop-color="#efe2dd"/><stop offset="1" stop-color="#bfbfbf"/></linearGradient><linearGradient id="SVGID_11_" gradientUnits="userSpaceOnUse" x1="154.055" x2="279.323" xlink:href="#lg4" y1="67.787" y2="67.787"/><linearGradient id="SVGID_12_" gradientUnits="userSpaceOnUse" x1="95.5" x2="268.498" xlink:href="#lg4" y1="97.123" y2="97.123"/><linearGradient id="SVGID_13_" gradientUnits="userSpaceOnUse" x1="230.678" x2="355.945" xlink:href="#lg4" y1="67.787" y2="67.787"/><linearGradient id="SVGID_14_" gradientUnits="userSpaceOnUse" x1="234" x2="335.501" xlink:href="#lg4" y1="19.38" y2="19.38"/><linearGradient id="SVGID_15_" gradientUnits="userSpaceOnUse" x1="254.635" x2="403.775" xlink:href="#lg3" y1="299.949" y2="299.949"/><linearGradient id="SVGID_16_" gradientUnits="userSpaceOnUse" x1="254.635" x2="403.775" xlink:href="#lg3" y1="370.338" y2="370.338"/><linearGradient id="SVGID_18_" gradientUnits="userSpaceOnUse" x1="254.635" x2="403.775" xlink:href="#lg3" y1="322.417" y2="322.417"/><linearGradient id="SVGID_20_" gradientUnits="userSpaceOnUse" x1="184" x2="294.291" xlink:href="#lg3" y1="290.334" y2="290.334"/><linearGradient id="SVGID_21_" gradientUnits="userSpaceOnUse" x1="184" x2="294.291" xlink:href="#lg3" y1="371.515" y2="371.515"/><linearGradient id="SVGID_22_" gradientUnits="userSpaceOnUse" x1="184" x2="294.291" xlink:href="#lg3" y1="322.412" y2="322.412"/><linearGradient id="lg5"><stop offset="0" stop-color="#fef056"/><stop offset=".5213" stop-color="#f4d902"/><stop offset="1" stop-color="#fe9738"/></linearGradient><linearGradient id="SVGID_23_" gradientUnits="userSpaceOnUse" x1="94.507" x2="454.098" xlink:href="#lg5" y1="181.569" y2="181.569"/><linearGradient id="SVGID_24_" gradientUnits="userSpaceOnUse" x1="-39.183" x2="418.19" xlink:href="#lg5" y1="181.569" y2="181.569"/><linearGradient id="lg6"><stop offset="0" stop-color="#e19974"/><stop offset="1" stop-color="#8c3d27"/></linearGradient><linearGradient id="SVGID_25_" gradientUnits="userSpaceOnUse" x1="188.484" x2="327.259" xlink:href="#lg6" y1="207.825" y2="207.825"/><linearGradient id="SVGID_26_" gradientUnits="userSpaceOnUse" x1="147.667" x2="308.168" xlink:href="#lg6" y1="195.451" y2="195.451"/><linearGradient id="SVGID_27_" gradientUnits="userSpaceOnUse" x1="107.235" x2="503.842" xlink:href="#lg6" y1="181.086" y2="181.086"/><linearGradient id="SVGID_28_" gradientUnits="userSpaceOnUse" x1="261.211" x2="344.811" xlink:href="#lg6" y1="181.086" y2="181.086"/><linearGradient id="SVGID_29_" gradientUnits="userSpaceOnUse" x1="137.975" x2="287.115" xlink:href="#lg3" y1="385.615" y2="385.615"/><linearGradient id="SVGID_30_" gradientUnits="userSpaceOnUse" x1="137.975" x2="287.115" xlink:href="#lg3" y1="456.005" y2="456.005"/><linearGradient id="SVGID_32_" gradientUnits="userSpaceOnUse" x1="137.975" x2="287.115" xlink:href="#lg3" y1="408.083" y2="408.083"/><g><path d="m120.252 69.502-46.919 106.078h-64.837c-4.692 0-8.496 3.804-8.496 8.496v70.425c0 87.604 71.017 158.622 158.622 158.622v-343.621z" fill="url(#SVGID_1_)"/><path d="m158.62 69.5v343.62c-13.56 0-26.73-1.7-39.29-4.9-14.21-3.62-27.64-9.16-40.02-16.32v-229.84l40.02-90.48.92-2.08z" fill="url(#SVGID_2_)"/><path d="m389.748 69.502 46.919 106.078h64.837c4.692 0 8.496 3.804 8.496 8.496v70.425c0 87.604-71.017 158.622-158.622 158.622v-343.621z" fill="url(#SVGID_3_)"/><g><path d="m415.499 175.58h21.168l-46.919-106.078h-38.37v3.731l37.643 85.106c4.636 10.481 15.018 17.241 26.478 17.241z" fill="url(#SVGID_4_)"/><path d="m501.504 175.58h-40.02c4.692 0 8.496 3.804 8.496 8.496v70.425c0 73.779-50.373 135.79-118.602 153.526v5.096c87.604 0 158.622-71.017 158.622-158.622v-70.425c0-4.692-3.804-8.496-8.496-8.496z" fill="url(#SVGID_5_)"/></g><g><path d="m391.048 79.945c0-10.083-2.894-19.954-8.338-28.441l-21.8-33.986c-1.442-2.272-3.105-4.357-4.951-6.235l-39.129-11.283h-123.66l-39.127 11.281c-1.847 1.879-3.511 3.965-4.953 6.237l-21.8 33.986c-5.444 8.487-8.338 18.358-8.338 28.441v418.413c0 6.43 5.212 11.642 11.642 11.642h248.813c6.43 0 11.642-5.212 11.642-11.642v-418.413z" fill="url(#SVGID_6_)"/><path d="m197.525 113h41.069l-84.543-101.711c-1.85 1.876-3.519 3.956-4.961 6.229l-10.205 15.91z" fill="url(#SVGID_7_)"/><path d="m391.05 79.95v418.41c0 6.429-5.211 11.64-11.64 11.64h-40.02c6.43 0 11.64-5.21 11.64-11.64v-146.018c0-39.948-32.384-72.332-72.332-72.332h-159.748v-25.01h232.08v-175.05c0-10.09-2.9-19.96-8.34-28.45l-9.967-15.536 23.237-24.68c1.846 1.878 3.509 3.964 4.95 6.236l21.8 33.98c5.44 8.49 8.34 18.36 8.34 28.45z" fill="url(#SVGID_8_)"/><path d="m193.17 0h123.66l-61.83 84.5z" fill="url(#SVGID_9_)"/><path d="m316.83 0-3.97 5.43-57.86 79.07-2-2.73-15.34-20.97 47.67-60.8z" fill="url(#SVGID_10_)"/><g><path d="m261.597 132.202 17.726-22.716-86.153-109.486h-12.212c-10.229 0-19.884 4.154-26.903 11.293l94.348 120.909c3.249 4.497 9.945 4.497 13.194 0z" fill="url(#SVGID_11_)"/><path d="m279.32 109.49-17.72 22.71c-3.25 4.5-9.95 4.5-13.2 0l-30.59-39.2-2.69-3.45 24.21-30.88 17.91 22.76z" fill="url(#SVGID_12_)"/><path d="m355.945 11.293c-7.019-7.139-16.674-11.293-26.903-11.293h-12.212l-86.152 109.486 17.726 22.716c3.248 4.497 9.945 4.497 13.194 0z" fill="url(#SVGID_13_)"/><path d="m355.95 11.29-21.43 27.47-14.785-21.867c-2.452-3.627-6.099-6.279-10.305-7.493l7.4-9.4h12.21c10.22 0 19.87 4.14 26.89 11.27.01.01.01.01.02.02z" fill="url(#SVGID_14_)"/></g><g><path d="m338.556 289.604c0-3.852-1.003-7.468-2.762-10.604-2.64-4.707-8.726-6.407-13.291-3.528-1.808 1.14-3.709 1.791-5.672 1.791s-3.865-.651-5.672-1.791c-4.565-2.878-10.651-1.178-13.291 3.528-1.759 3.136-2.762 6.752-2.762 10.604 0 11.999 9.727 36.233 21.726 36.233s21.724-24.235 21.724-36.233z" fill="url(#SVGID_15_)"/><path d="m362.394 358.741c-8.484-8.484-32.498-18.742-40.983-10.258-8.484 8.484 1.774 32.498 10.258 40.983 2.724 2.724 5.99 4.572 9.451 5.545 5.195 1.461 10.7-1.64 11.893-6.903.472-2.085 1.356-3.889 2.745-5.277s3.193-2.272 5.277-2.745c5.263-1.193 8.365-6.698 6.903-11.893-.973-3.462-2.821-6.729-5.544-9.452z" fill="url(#SVGID_16_)"/><path d="m271.266 358.741c-2.724 2.724-4.572 5.99-5.545 9.451-1.461 5.195 1.64 10.7 6.903 11.893 2.085.472 3.889 1.357 5.277 2.745s2.272 3.193 2.745 5.277c1.193 5.263 6.698 8.364 11.893 6.903 3.461-.974 6.728-2.821 9.451-5.545 8.484-8.484 18.742-32.498 10.258-40.983-8.483-8.484-32.497 1.774-40.982 10.259z" fill="url(#SVGID_16_)"/><g fill="url(#SVGID_18_)"><path d="m376.858 321.297c-1.762-1.209-3.112-2.698-3.889-4.501s-.931-3.807-.6-5.918c.837-5.331-3.132-10.248-8.499-10.811-3.576-.375-7.294.135-10.832 1.659-11.02 4.747-29.428 23.268-24.681 34.288s30.852 10.365 41.872 5.618c3.538-1.524 6.462-3.876 8.646-6.732 3.279-4.288 2.433-10.55-2.017-13.603z"/><path d="m305.302 336.013c4.747-11.02-13.661-29.541-24.681-34.288-3.538-1.524-7.256-2.033-10.832-1.659-5.367.563-9.336 5.479-8.499 10.811.332 2.111.177 4.115-.6 5.918s-2.127 3.292-3.889 4.501c-4.449 3.054-5.296 9.316-2.018 13.603 2.184 2.856 5.109 5.208 8.646 6.732 11.021 4.747 37.126 5.402 41.873-5.618z"/></g></g><g><path d="m322.5 275.47c-1.81 1.14-3.71 1.79-5.67 1.79s-3.86-.65-5.67-1.79c-4.57-2.88-10.65-1.18-13.29 3.53-.57 1.02-1.06 2.09-1.45 3.2 15.29 3.85 28.65 12.56 38.32 24.41 2.41-6.1 3.82-12.44 3.82-17.01 0-3.85-1.01-7.46-2.77-10.6-2.64-4.71-8.72-6.41-13.29-3.53z" fill="url(#SVGID_20_)"/><path d="m362.39 358.74c-2.62-2.62-6.71-5.4-11.37-7.75.01.45.01.9.01 1.35v39.7c.95-1.1 1.64-2.42 1.98-3.93.48-2.09 1.36-3.89 2.75-5.28s3.19-2.27 5.28-2.74c5.26-1.2 8.36-6.7 6.9-11.9-.97-3.46-2.82-6.73-5.55-9.45z" fill="url(#SVGID_21_)"/><path d="m376.86 321.3c-1.76-1.21-3.11-2.7-3.89-4.5-.78-1.81-.93-3.81-.6-5.92.84-5.33-3.13-10.25-8.5-10.81-3.57-.38-7.29.13-10.83 1.66-4.23 1.82-9.55 5.67-14.23 10.35 6.41 9.56 10.6 20.74 11.84 32.79 7.38.08 14.86-1.21 19.58-3.24 3.54-1.52 6.46-3.87 8.65-6.73 3.27-4.29 2.43-10.55-2.02-13.6z" fill="url(#SVGID_22_)"/></g></g><g><path d="m394.676 255h-279.352c-5.159 0-9.342-4.182-9.342-9.342v-128.179c0-5.159 4.182-9.342 9.342-9.342h279.352c5.159 0 9.342 4.182 9.342 9.342v128.179c0 5.16-4.183 9.342-9.342 9.342z" fill="url(#SVGID_23_)"/><path d="m394.676 108.138h-40.02c5.159 0 9.342 4.182 9.342 9.342v26.55h-204.338c-6.907 0-12.505 5.599-12.505 12.505 0 6.907 5.599 12.505 12.505 12.505h189.76c8.051 0 14.578 6.527 14.578 14.578v22.451h-153.853c-6.885 0-12.792 5.387-12.918 12.271-.128 7.014 5.519 12.74 12.503 12.74h139.689c8.051 0 14.578 6.527 14.578 14.578 0 5.159-4.182 9.342-9.342 9.342h40.02c5.159 0 9.342-4.182 9.342-9.342v-128.179c.001-5.159-4.182-9.341-9.341-9.341z" fill="url(#SVGID_24_)"/></g><g><g><path d="m312.1 221.729-43.543-43.542c-7.488-7.488-19.627-7.488-27.115 0l-43.542 43.542c-4.88 4.89-4.88 12.81 0 17.69 2.44 2.44 5.64 3.66 8.84 3.66s6.4-1.22 8.85-3.66l39.41-39.41 39.41 39.41c4.89 4.88 12.81 4.88 17.69 0 2.44-2.44 3.66-5.64 3.66-8.84s-1.22-6.4-3.66-8.85z" fill="url(#SVGID_25_)"/><path d="m308.71 218.335h-35.39l-18.32-18.321-18.32 18.32h-35.39l40.15-40.15c7.49-7.49 19.63-7.49 27.12 0z" fill="url(#SVGID_26_)"/></g><g><path d="m397.456 168.58h-284.912c-6.907 0-12.506 5.599-12.506 12.506 0 6.907 5.599 12.505 12.506 12.505h284.911c6.907 0 12.505-5.599 12.505-12.505.001-6.907-5.598-12.506-12.504-12.506z" fill="url(#SVGID_27_)"/><path d="m397.456 168.58h-25.011c6.907 0 12.505 5.599 12.505 12.505 0 6.907-5.599 12.506-12.505 12.506h25.011c6.907 0 12.505-5.599 12.505-12.506 0-6.906-5.599-12.505-12.505-12.505z" fill="url(#SVGID_28_)"/></g></g><g><path d="m221.896 375.27c0-3.852-1.003-7.468-2.762-10.604-2.64-4.707-8.726-6.407-13.291-3.528-1.808 1.14-3.709 1.791-5.672 1.791s-3.865-.651-5.672-1.791c-4.565-2.878-10.651-1.178-13.291 3.528-1.759 3.136-2.762 6.752-2.762 10.604 0 11.999 9.727 36.233 21.726 36.233 11.997 0 21.724-24.234 21.724-36.233z" fill="url(#SVGID_29_)"/><path d="m245.734 444.407c-8.484-8.484-32.498-18.742-40.983-10.258-8.484 8.484 1.774 32.498 10.258 40.983 2.724 2.724 5.99 4.572 9.451 5.545 5.195 1.461 10.7-1.64 11.893-6.903.472-2.085 1.356-3.889 2.745-5.277 1.388-1.388 3.193-2.272 5.277-2.745 5.263-1.193 8.364-6.698 6.903-11.893-.973-3.462-2.821-6.728-5.544-9.452z" fill="url(#SVGID_30_)"/><path d="m154.606 444.407c-2.724 2.724-4.572 5.99-5.545 9.451-1.461 5.195 1.64 10.7 6.903 11.893 2.085.472 3.889 1.357 5.277 2.745s2.272 3.193 2.745 5.277c1.193 5.263 6.698 8.365 11.893 6.903 3.461-.973 6.728-2.821 9.451-5.545 8.484-8.484 18.742-32.498 10.258-40.983-8.483-8.483-32.497 1.775-40.982 10.259z" fill="url(#SVGID_30_)"/><g fill="url(#SVGID_32_)"><path d="m260.198 406.963c-1.762-1.209-3.112-2.698-3.889-4.501s-.931-3.807-.6-5.918c.837-5.331-3.132-10.248-8.499-10.811-3.576-.375-7.294.135-10.832 1.659-11.02 4.747-29.428 23.268-24.681 34.288s30.852 10.365 41.872 5.618c3.538-1.524 6.462-3.876 8.646-6.732 3.279-4.287 2.433-10.549-2.017-13.603z"/><path d="m188.642 421.68c4.747-11.02-13.661-29.541-24.681-34.288-3.538-1.524-7.256-2.033-10.832-1.659-5.367.563-9.336 5.479-8.499 10.811.332 2.111.177 4.115-.6 5.918s-2.127 3.292-3.889 4.501c-4.449 3.054-5.296 9.316-2.018 13.603 2.184 2.856 5.109 5.208 8.646 6.732 11.021 4.747 37.126 5.401 41.873-5.618z"/></g></g></g></svg>